<svg width="33" height="32" viewBox="0 0 33 32" fill="none" xmlns="http://www.w3.org/2000/svg">
<g clip-path="url(#clip0_10_59)">
<path d="M16.2414 9.6293C15.0734 9.6293 13.2654 8.3013 11.3614 8.3493C8.84942 8.3813 6.54542 9.8053 5.24942 12.0613C2.64142 16.5893 4.57742 23.2773 7.12142 26.9573C8.36942 28.7493 9.84142 30.7653 11.7934 30.7013C13.6654 30.6213 14.3694 29.4853 16.6414 29.4853C18.8974 29.4853 19.5374 30.7013 21.5214 30.6533C23.5374 30.6213 24.8174 28.8293 26.0494 27.0213C27.4734 24.9413 28.0654 22.9253 28.0974 22.8133C28.0494 22.7973 24.1774 21.3093 24.1294 16.8293C24.0974 13.0853 27.1854 11.2933 27.3294 11.2133C25.5694 8.6373 22.8654 8.3493 21.9214 8.2853C19.4574 8.0933 17.3934 9.6293 16.2414 9.6293ZM20.4014 5.8533C21.4414 4.6053 22.1294 2.8613 21.9374 1.1333C20.4494 1.1973 18.6574 2.1253 17.5854 3.3733C16.6254 4.4773 15.7934 6.2533 16.0174 7.9493C17.6654 8.0773 19.3614 7.1013 20.4014 5.8533Z" fill="black"/>
</g>
<defs>
<clipPath id="clip0_10_59">
<rect width="32" height="32" fill="white" transform="translate(0.742676)"/>
</clipPath>
</defs>
</svg>
