<svg width="80" height="80" viewBox="0 0 80 80" fill="none" xmlns="http://www.w3.org/2000/svg">
<path d="M40.2896 4.71021C30.9482 4.72081 21.9924 8.43638 15.387 15.0418C8.78165 21.6471 5.06609 30.6029 5.05548 39.9443C6.9911 86.6872 73.5953 86.6736 75.5238 39.944C75.5131 30.6027 71.7975 21.647 65.1921 15.0416C58.5867 8.43632 49.631 4.72081 40.2896 4.71021ZM40.2896 71.4696C31.9315 71.4601 23.9185 68.1356 18.0084 62.2256C12.0983 56.3155 8.77387 48.3024 8.76434 39.9443C10.4964 -1.87816 70.0892 -1.86602 71.815 39.9446C71.8054 48.3026 68.4809 56.3156 62.5708 62.2256C56.6607 68.1357 48.6477 71.4601 40.2896 71.4696Z" fill="#049C6B"/>
<path d="M53.8139 27.0944L36.993 43.9152L29.2378 36.1607C28.8883 35.8213 28.4194 35.633 27.9322 35.6366C27.4451 35.6401 26.9789 35.8352 26.6345 36.1797C26.29 36.5242 26.095 36.9903 26.0914 37.4775C26.0879 37.9646 26.2762 38.4336 26.6156 38.783L35.6819 47.8492C36.031 48.1944 36.5021 48.388 36.9931 48.388C37.484 48.388 37.9551 48.1944 38.3042 47.8492L56.4361 29.7166C56.7747 29.367 56.9623 28.8983 56.9584 28.4116C56.9545 27.9249 56.7595 27.4593 56.4153 27.1151C56.0712 26.771 55.6055 26.576 55.1188 26.5721C54.6321 26.5682 54.1634 26.7558 53.8139 27.0944Z" fill="#049C6B"/>
</svg>
