<svg width="35" height="32" viewBox="0 0 35 32" fill="none" xmlns="http://www.w3.org/2000/svg">
<g clip-path="url(#clip0_10_89)">
<path d="M34.7549 16C34.7549 7.16344 27.0296 0 17.5 0C7.97039 0 0.245117 7.16344 0.245117 16C0.245117 23.9861 6.55499 30.6053 14.8039 31.8056V20.625H10.4228V16H14.8039V12.475C14.8039 8.465 17.38 6.25 21.3214 6.25C23.2092 6.25 25.1838 6.5625 25.1838 6.5625V10.5H23.008C20.8646 10.5 20.1961 11.7333 20.1961 12.9987V16H24.9816L24.2166 20.625H20.1961V31.8056C28.4451 30.6053 34.7549 23.9861 34.7549 16Z" fill="#1877F2"/>
<path d="M24.2167 20.625L24.9817 16H20.1961V12.9987C20.1961 11.7333 20.8646 10.5 23.0081 10.5H25.1839V6.5625C25.1839 6.5625 23.2092 6.25 21.3214 6.25C17.38 6.25 14.804 8.465 14.804 12.475V16H10.4229V20.625H14.804V31.8056C15.6825 31.9334 16.5829 32 17.5001 32C18.4173 32 19.3177 31.9334 20.1961 31.8056V20.625H24.2167Z" fill="white"/>
</g>
<defs>
<clipPath id="clip0_10_89">
<rect width="34.5098" height="32" fill="white" transform="translate(0.245117)"/>
</clipPath>
</defs>
</svg>
