<svg width="33" height="32" viewBox="0 0 33 32" fill="none" xmlns="http://www.w3.org/2000/svg">
<path d="M7.83481 19.3392L6.72089 23.4976L2.64956 23.5837C1.43283 21.327 0.742676 18.7449 0.742676 16.0011C0.742676 13.3478 1.38795 10.8457 2.53174 8.64258H2.53262L6.15725 9.3071L7.74506 12.91C7.41273 13.8788 7.2316 14.9189 7.2316 16.0011C7.23173 17.1756 7.44448 18.301 7.83481 19.3392Z" fill="#FBBB00"/>
<path d="M32.463 13.0117C32.6468 13.9796 32.7426 14.9792 32.7426 16.0008C32.7426 17.1464 32.6221 18.2638 32.3927 19.3416C31.6138 23.0095 29.5785 26.2122 26.7591 28.4787L26.7582 28.4778L22.1928 28.2448L21.5467 24.2113C23.4175 23.1141 24.8795 21.3971 25.6497 19.3416H17.0938V13.0117H25.7745H32.463Z" fill="#518EF8"/>
<path d="M26.761 28.4773L26.7619 28.4781C24.0198 30.6822 20.5366 32.0009 16.7448 32.0009C10.6514 32.0009 5.35366 28.5951 2.65112 23.583L7.83637 19.3385C9.18761 22.9448 12.6664 25.5119 16.7448 25.5119C18.4978 25.5119 20.1401 25.038 21.5494 24.2107L26.761 28.4773Z" fill="#28B446"/>
<path d="M26.9552 3.68363L21.7717 7.92729C20.3132 7.01563 18.5891 6.48899 16.742 6.48899C12.5713 6.48899 9.02744 9.1739 7.7439 12.9095L2.53139 8.64207H2.53052C5.19349 3.50782 10.5581 0 16.742 0C20.6244 0 24.1841 1.38293 26.9552 3.68363Z" fill="#F14336"/>
</svg>
